<svg xmlns="http://www.w3.org/2000/svg" xmlns:xlink="http://www.w3.org/1999/xlink" viewBox="0 0 66 53.118" fill="#fff" fill-rule="evenodd" stroke="#000" stroke-linecap="round" stroke-linejoin="round"><use xlink:href="#A" x=".5" y="1.559"/><symbol id="A" overflow="visible"><g stroke="none"><path d="M52.58 18.058h2.47C60 18.058 64 14.04 64 9.1S60 .132 55.05.132 46.1 4.14 46.1 9.1v2.475c-.024 3.577 2.886 6.493 6.48 6.493m-41.16-.01H8.95C4 18.058 0 14.04 0 9.1S4 .132 8.95.132 17.9 4.14 17.9 9.1v2.475c.024 3.577-2.886 6.493-6.48 6.493" fill="#000"/><path d="M45.438 46.97a31.86 31.86 0 0 1-25.801.196l-.7-.318C10.662 43.27 5.38 35.503 5.38 27v-2.08C5.38 11.173 17.314 0 32.012 0s26.632 11.15 26.632 24.92v2.328c0 8.404-5.136 16.073-13.206 19.724"/></g><path d="M45.438 46.97a31.86 31.86 0 0 1-25.801.196l-.7-.318C10.662 43.27 5.38 35.503 5.38 27v-2.08C5.38 11.173 17.314 0 32.012 0s26.632 11.15 26.632 24.92v2.328c0 8.404-5.136 16.073-13.206 19.724z" fill="none" stroke-width="3.118"/><g stroke="none"><path d="M13.2 16.92c2.6-4.2 7.562-5.517 11.06-2.943s4.22 8.064 1.6 12.263-7.562 5.516-11.06 2.943-4.2-8.063-1.6-12.263" fill="#000"/><path d="M44.746 43.67h-.002a30.07 30.07 0 0 1-24.426.192l-.722-.324C11.957 40.234 7.02 33.023 7.02 25.17v2.053c0 7.853 4.936 15.064 12.576 18.37l.722.324a30.07 30.07 0 0 0 24.426-.192l.002-.001c7.446-3.368 12.258-10.535 12.258-18.258v-2.053c0 7.723-4.8 14.9-12.258 18.258" fill="#e6e6e6"/><path d="M35.56 33.62l-2.366 1.485c-.728.443-1.638.443-2.34 0L28.5 33.62a2.23 2.23 0 0 1-1.04-1.876 2.21 2.21 0 0 1 2.21-2.214h4.732a2.21 2.21 0 0 1 2.21 2.214c0 .755-.4 1.485-1.04 1.876" fill="#000"/></g><g fill="none" stroke="#010202"><path d="M38.603 37.085a9.31 9.31 0 0 1-13.182 0" stroke-width="2.599"/><path d="M32.025 39.82v-5.392" stroke-width="2.08"/></g><g stroke="none"><path d="M18.415 17.813c.926-1.5 2.684-1.958 3.926-1.045s1.497 2.862.57 4.352-2.684 1.958-3.926 1.045-1.498-2.862-.57-4.352"/><path d="M50.84 16.92c-2.6-4.2-7.562-5.517-11.06-2.943s-4.22 8.064-1.6 12.263 7.562 5.516 11.06 2.943 4.22-8.064 1.6-12.263" fill="#000"/><path d="M45.635 17.813c-.926-1.5-2.684-1.958-3.926-1.045s-1.497 2.862-.57 4.352 2.684 1.958 3.926 1.045 1.498-2.862.57-4.352"/></g></symbol></svg>